<svg version="1.1" xmlns="http://www.w3.org/2000/svg" viewBox="-221.18399353027343 -1271.8080322265625 4145.151953125 1753.08798828125"><desc>Created with Snap</desc><defs></defs><g><g><g transform="matrix(1.024,0,0,-1.024,0,0)"><path d="M440 136L325 136L84 366L325 595L440 595L198 366L440 136ZM1148 942L1239 942L965 -170L875 -170L1148 942ZM1634 366L1392 595L1507 595L1749 366L1507 136L1392 136L1634 366ZM2649 0L2593 155L2289 155L2233 0L2137 0L2389 693L2494 693L2745 0L2649 0ZM2315 229L2567 229L2441 581L2315 229ZM3532 -132L3414 -132L3275 7Q3224 -7 3171 -7Q3074 -7 2994 38Q2914 84 2867 165Q2821 247 2821 349Q2821 451 2867 532Q2914 614 2994 659Q3074 705 3171 705Q3269 705 3349 659Q3429 614 3475 533Q3521 452 3521 349Q3521 249 3477 169Q3433 89 3356 43L3532 -132ZM2914 349Q2914 266 2947 203Q2981 140 3039 106Q3098 72 3171 72Q3244 72 3302 106Q3361 140 3394 203Q3428 266 3428 349Q3428 433 3394 495Q3361 558 3303 592Q3245 626 3171 626Q3097 626 3039 592Q2981 558 2947 495Q2914 433 2914 349Z" fill="#165a3f" style=""></path></g></g></g></svg>